PathFileType	4	(X/Y/Z)	C:/Users/opensim2020/Desktop/walking_exp_matlab/subject03_walking15_straight_01.trc																																																																																																																																											
DataRate	CameraRate	NumFrames	NumMarkers	Units	OrigDataRate	OrigDataStartFrame	OrigNumFrames																																																																																																																																							
100	100	5	47	mm	100	574	196																																																																																																																																							
Frame#	Time	LFHD			RFHD			LBHD			RBHD			C7			T10			CLAV			STRN			RBAK			LSHO			LUPA			LELB			LFRM			LWRA			LWRB			LFIN			RSHO			RUPA			RELB			RFRM			RWRA			RWRB			RFIN			LASI			RASI			LPSI			RPSI			LTHI			LKNE			LTIB			LANK			LHEE			LTOE			RTHI			RKNE			RTIB			RANK			RHEE			RTOE			*39			*40			*41			*42			*43			*44			*45			*46		
		X1	Y1	Z1	X2	Y2	Z2	X3	Y3	Z3	X4	Y4	Z4	X5	Y5	Z5	X6	Y6	Z6	X7	Y7	Z7	X8	Y8	Z8	X9	Y9	Z9	X10	Y10	Z10	X11	Y11	Z11	X12	Y12	Z12	X13	Y13	Z13	X14	Y14	Z14	X15	Y15	Z15	X16	Y16	Z16	X17	Y17	Z17	X18	Y18	Z18	X19	Y19	Z19	X20	Y20	Z20	X21	Y21	Z21	X22	Y22	Z22	X23	Y23	Z23	X24	Y24	Z24	X25	Y25	Z25	X26	Y26	Z26	X27	Y27	Z27	X28	Y28	Z28	X29	Y29	Z29	X30	Y30	Z30	X31	Y31	Z31	X32	Y32	Z32	X33	Y33	Z33	X34	Y34	Z34	X35	Y35	Z35	X36	Y36	Z36	X37	Y37	Z37	X38	Y38	Z38	X39	Y39	Z39	X40	Y40	Z40	X41	Y41	Z41	X42	Y42	Z42	X43	Y43	Z43	X44	Y44	Z44	X45	Y45	Z45	X46	Y46	Z46	X47	Y47	Z47
																																																																																																																																														
74	0.73	-164.74629	1619.35107	1377.63428	-164.10382	1628.59839	1510.70459	-280.21613	1550.17566	1387.15649	-274.96671	1559.76501	1517.6449	-287.05679	1399.09998	1444.44263	-302.55121	1088.76196	1446.55542	-158.37331	1334.15454	1448.93311	-102.08228	1172.18848	1447.75098	-325.32254	1223.4292	1545.52844	-202.03752	1365.21887	1290.9856	-230.05176	1169.60376	1216.87585	-241.71599	1047.01074	1201.60645	-247.98755	916.14563	1193.80811	-271.47043	794.65216	1215.16492	-280.72787	810.52289	1160.22803	-332.15619	735.1745	1168.49524	-209.14716	1358.57361	1607.14636	-167.61577	1142.93127	1683.49548	-127.39125	1037.72815	1695.89319	-72.41637	912.12689	1694.80505	-16.77759	832.05121	1656.27612	-43.80219	815.90002	1699.73279	5.25938	761.54559	1690.03052	-128.24525	941.26367	1327.18591	-140.74503	918.66327	1561.12891	-294.63138	953.76825	1366.04211	-299.31171	949.74774	1516.12012	-121.30705	639.7467	1275.52722	-72.11839	472.97922	1324.93542	-111.90141	275.78134	1323.37146	-133.13329	69.69909	1369.68433	-177.56116	36.9119	1404.27905	16.20812	35.54867	1395.51733	-201.64679	619.58856	1606.41504	-190.60229	439.33942	1586.8667	-343.83621	324.5676	1595.25952	-520.85785	202.49847	1555.71692	-565.24414	227.54807	1502.07251	-500.96362	61.10004	1530.80566	-257.01886	1663.58533	1429.37512	NaN	NaN	NaN	NaN	NaN	NaN	NaN	NaN	NaN	NaN	NaN	NaN	NaN	NaN	NaN	NaN	NaN	NaN	NaN	NaN	NaN
75	0.74	-152.67059	1620.7417	1377.21631	-152.15897	1630.05164	1510.23438	-268.01489	1551.448	1386.60669	-262.92853	1561.06787	1517.13354	-274.67197	1400.50708	1443.36255	-289.73532	1090.01111	1445.58777	-146.10997	1335.57043	1448.9021	-89.61057	1173.59985	1448.06262	-313.69485	1224.49548	1543.77612	-188.32809	1366.48804	1290.59595	-213.54037	1170.56921	1216.26868	-224.07227	1047.89954	1201.18811	-229.09843	916.73077	1193.66956	-251.1998	795.24908	1214.92041	-259.89084	810.89044	1159.81274	-310.69748	734.61951	1168.41113	-197.95276	1359.53174	1606.74854	-157.75534	1143.32568	1682.8866	-118.56062	1037.60083	1695.30493	-65.26069	911.29382	1694.49158	-10.53239	830.48865	1656.16833	-37.96534	814.6665	1699.56042	10.20255	759.4375	1689.74512	-115.12329	942.10291	1327.05896	-128.79565	919.51691	1561.64526	-281.41589	955.28571	1365.44043	-286.96704	950.31653	1515.44958	-113.98229	639.52911	1276.22021	-66.72305	472.08395	1324.8009	-109.07834	275.57742	1322.95056	-132.93933	69.85303	1369.59546	-177.66316	36.99232	1404.24585	16.21274	35.43879	1395.57153	-183.9395	620.19147	1604.99805	-164.99983	440.05286	1585.85095	-318.12616	326.80746	1592.73035	-497.64355	209.41333	1552.97278	-542.28839	232.16376	1498.49255	-475.58493	67.14766	1532.06543	-245.70952	1665.00586	1429.26099	NaN	NaN	NaN	NaN	NaN	NaN	NaN	NaN	NaN	NaN	NaN	NaN	NaN	NaN	NaN	NaN	NaN	NaN	NaN	NaN	NaN
76	0.75	-140.66908	1622.16162	1376.771	-140.1033	1631.59985	1509.8385	-255.89938	1552.74573	1386.177	-250.88647	1562.48242	1516.68079	-262.23111	1401.99255	1442.46021	-277.21805	1091.30164	1444.70129	-133.98351	1336.9978	1448.90222	-77.24942	1175.07922	1448.37537	-302.19077	1225.53638	1541.90625	-174.80342	1367.78748	1290.32593	-196.65694	1171.45105	1215.87097	-206.22302	1048.67163	1200.88062	-209.24127	917.89178	1193.48315	-230.89999	795.45026	1215.3042	-238.55591	811.35785	1159.46448	-287.29379	733.80011	1167.55054	-186.81401	1360.47461	1606.50134	-148.12489	1143.73071	1682.28455	-110.1103	1037.56677	1694.72925	-58.37284	910.44598	1694.17188	-5.06162	828.4281	1655.71912	-32.72726	813.49323	1699.37622	14.85013	757.38599	1689.52771	-102.07422	943.0011	1327.00818	-116.95426	920.63977	1562.11755	-268.75806	956.91302	1364.99463	-274.59973	951.17377	1514.81531	-105.87953	639.97437	1276.22156	-61.55922	471.5874	1324.54883	-106.16452	275.42038	1322.67603	-132.88455	69.93152	1369.44592	-177.55365	36.7986	1404.09558	16.2301	35.37653	1395.61902	-166.50021	621.57977	1603.84106	-139.79163	442.17664	1585.0354	-292.82272	330.17746	1589.73669	-472.79123	213.89008	1550.21863	-518.16107	235.04959	1495.00427	-447.74533	71.71216	1532.62988	NaN	NaN	NaN	NaN	NaN	NaN	NaN	NaN	NaN	NaN	NaN	NaN	NaN	NaN	NaN	NaN	NaN	NaN	NaN	NaN	NaN	NaN	NaN	NaN
77	0.76	-128.52104	1623.66858	1376.36572	-128.23161	1633.24268	1509.38074	-243.75772	1554.07324	1385.75769	-238.85213	1563.96216	1516.25195	-249.93488	1403.74365	1441.76355	-264.82947	1092.78687	1443.8103	-121.94257	1338.52576	1448.82886	-65.0638	1176.63611	1448.57654	-290.94614	1226.80774	1540.08789	-161.37187	1369.17822	1290.23413	-179.52835	1172.32288	1215.69666	-187.92322	1049.68726	1200.66602	-189.22409	918.95825	1193.45776	-209.47795	796.57721	1215.38708	-216.82059	811.96576	1159.19092	-262.36853	732.65649	1166.67664	-175.75716	1361.48254	1606.34827	-138.68056	1144.15308	1681.68066	-101.29582	1037.5957	1694.28418	-51.75692	909.61078	1693.78479	0.54123	826.76691	1655.64502	-27.27393	812.24176	1699.35449	19.00133	755.26398	1689.24756	-89.56117	943.84656	1326.99207	-105.09476	922.05688	1562.4176	-256.01895	958.65125	1364.52393	-262.3273	952.48096	1514.22083	-97.35965	640.67932	1276.35791	-56.33993	471.29962	1324.38086	-103.29047	275.26422	1322.57166	-132.86528	70.02587	1369.31067	-177.67041	36.92112	1403.96167	16.20859	35.30366	1395.56445	-148.73421	623.52216	1602.69897	-115.08076	445.35364	1584.32434	-267.64331	333.70267	1587.31091	-446.78558	216.43181	1547.48096	-492.87784	235.84262	1491.96863	-417.91068	75.11952	1532.4314	-221.48421	1667.67273	1428.07104	NaN	NaN	NaN	NaN	NaN	NaN	NaN	NaN	NaN	NaN	NaN	NaN	NaN	NaN	NaN	NaN	NaN	NaN	NaN	NaN	NaN
78	0.77	-116.49367	1625.15369	1376.04041	-116.1605	1634.94373	1509.07837	-231.55876	1555.54138	1385.42908	-226.81255	1565.5752	1515.88806	-237.72845	1405.323	1441.15613	-252.47021	1094.36658	1442.83789	-109.88474	1340.10425	1448.8446	-52.89286	1178.26111	1448.77014	-279.63104	1228.02307	1538.28113	-148.26413	1370.62305	1290.21826	-162.34422	1173.42847	1215.68176	-169.66888	1050.76196	1200.71765	-169.35594	919.84583	1193.69165	-187.01074	797.39197	1215.09424	-194.72412	812.74921	1159.08899	-236.18384	731.52454	1166.06921	-164.68594	1362.51147	1606.26794	-129.46326	1144.61804	1681.09424	-93.32018	1037.61548	1693.4679	-45.37594	908.89203	1693.34497	5.7377	825.53705	1655.53601	-22.68188	811.13721	1699.00977	22.87407	753.57068	1689.2428	-76.87223	944.89099	1326.5437	-92.99529	923.96423	1562.53003	-243.80034	960.2428	1364.19543	-250.1048	954.2312	1513.78162	-88.48605	641.44775	1276.49646	-51.47122	470.76794	1324.46655	-100.60129	275.11829	1322.87207	-132.82173	70.19283	1369.19714	-177.91562	37.41764	1403.94653	16.19511	35.23318	1395.57471	-130.22713	625.84058	1601.60193	-90.72963	449.0965	1583.54907	-242.18286	336.87973	1585.34387	-419.96747	217.32036	1544.83691	-467.04361	234.71237	1489.09753	-386.11795	77.17142	1531.47095	-210.26308	1669.32104	1428.15967	NaN	NaN	NaN	NaN	NaN	NaN	NaN	NaN	NaN	NaN	NaN	NaN	NaN	NaN	NaN	NaN	NaN	NaN	NaN	NaN	NaN
